# xmcd CD database file
#
# Track frame offsets:
#	155
#	18139
#	39242
#	57443
#	75624
#	93929
#	116621
#	138898
#	158864
#	177354
#	189770
#	202819
#	218680
#	241392
#	265765
#	306494
#
# Disc length: 4355 seconds
#
# Revision: 1
# Processed by: cddbd v1.5.2PL0 Copyright (c) Steve Scherf et al.
# Submitted via: cdripper 1,0,39,0213
#
DISCID=c8110110
DTITLE=Ricardo Rey y Bobby Cruz - Algo Nuevo
DYEAR=1900
DGENRE=Salsa
TTITLE0=La Rueda De La Fortuna
TTITLE1=Conozco Al Creador
TTITLE2=Yo No Sé
TTITLE3=No Me Mires A Mí
TTITLE4=El Que Viene
TTITLE5=Algo Nuevo
TTITLE6=El Amor
TTITLE7=Algunos Sufren
TTITLE8=Canción De Moises
TTITLE9=El
TTITLE10=Gloria A Dios
TTITLE11=Tu Me Enseñastes Todo
TTITLE12=A Dios Sea La Gloria
TTITLE13=Juan En La Ciudad
TTITLE14=Fariseos
TTITLE15=Eres Libre
EXTD=
EXTT0=
EXTT1=
EXTT2=
EXTT3=
EXTT4=
EXTT5=
EXTT6=
EXTT7=
EXTT8=
EXTT9=
EXTT10=
EXTT11=
EXTT12=
EXTT13=
EXTT14=
EXTT15=
PLAYORDER=
